<svg xmlns="http://www.w3.org/2000/svg" width="200" height="200"><ellipse fill="#F15A24" cx="71.432" cy="145.532" rx="41.624" ry="39.116"/><ellipse fill="#0071BC" cx="50.432" cy="92.532" rx="41.624" ry="39.116"/><path fill="#C1272D" d="M102.239 12.994c22.99 0 41.63 17.51 41.63 39.11 0 21.61-18.64 39.12-41.63 39.12-22.989 0-41.62-17.51-41.62-39.12 0-21.6 18.631-39.11 41.62-39.11z"/><ellipse fill="#009245" cx="140.432" cy="145.532" rx="41.624" ry="39.116"/><ellipse fill="#FBD13B" cx="153.432" cy="92.532" rx="41.624" ry="39.116"/><g stroke="#000" stroke-miterlimit="10"><rect x="54" y="71.5" fill="#fff" width="95" height="71"/><path d="M89.061 134.5h-20.11s-3.648-34.897 9.478-34.897c13.116 0 10.632 34.897 10.632 34.897z"/><circle cx="78.38" cy="86.476" r="7.801"/><rect x="107" y="100.5" width="32" height="10"/><rect x="118" y="90.5" width="10" height="30"/><path d="M99.548 127.5h-16.677s-3.024-28.94 7.86-28.94c10.877 0 8.817 28.94 8.817 28.94z"/><path d="M97.16 88.144c0 3.572-2.895 6.469-6.471 6.469-3.57 0-6.468-2.897-6.468-6.469 0-3.572 2.897-6.469 6.468-6.469 3.577 0 6.471 2.897 6.471 6.469z"/></g></svg>